<?xml version="1.0" encoding="UTF-8" standalone="no"?>
<svg
   xmlns:dc="http://purl.org/dc/elements/1.1/"
   xmlns:cc="http://creativecommons.org/ns#"
   xmlns:rdf="http://www.w3.org/1999/02/22-rdf-syntax-ns#"
   xmlns:svg="http://www.w3.org/2000/svg"
   xmlns="http://www.w3.org/2000/svg"
   xmlns:xlink="http://www.w3.org/1999/xlink"
   xmlns:sodipodi="http://sodipodi.sourceforge.net/DTD/sodipodi-0.dtd"
   xmlns:inkscape="http://www.inkscape.org/namespaces/inkscape"
   width="210mm"
   height="297mm"
   viewBox="0 0 210 297"
   version="1.1"
   id="svg8"
   inkscape:version="1.0.1 (1.0.1+r73)"
   sodipodi:docname="LogoTattto.svg">
  <defs
     id="defs2" />
  <sodipodi:namedview
     id="base"
     pagecolor="#ffffff"
     bordercolor="#666666"
     borderopacity="1.0"
     inkscape:pageopacity="0.0"
     inkscape:pageshadow="2"
     inkscape:zoom="0.35"
     inkscape:cx="5.8277294"
     inkscape:cy="609.35353"
     inkscape:document-units="mm"
     inkscape:current-layer="layer1"
     inkscape:document-rotation="0"
     showgrid="false"
     inkscape:snap-object-midpoints="true"
     inkscape:snap-center="false"
     inkscape:window-width="1366"
     inkscape:window-height="768"
     inkscape:window-x="0"
     inkscape:window-y="0"
     inkscape:window-maximized="0"
     inkscape:snap-global="false"
     inkscape:object-nodes="false"
     inkscape:snap-others="true" />
  <metadata
     id="metadata5">
    <rdf:RDF>
      <cc:Work
         rdf:about="">
        <dc:format>image/svg+xml</dc:format>
        <dc:type
           rdf:resource="http://purl.org/dc/dcmitype/StillImage" />
        <dc:title />
      </cc:Work>
    </rdf:RDF>
  </metadata>
  <g
     inkscape:label="Layer 1"
     inkscape:groupmode="layer"
     id="layer1">
    <circle
       style="opacity:0.984759;fill:#020202;fill-opacity:0.994369;stroke-width:12.9745;stroke-linecap:square"
       id="path847"
       cx="101.44113"
       cy="134.4375"
       r="99.68634"
       inkscape:export-xdpi="96"
       inkscape:export-ydpi="96" />
    <circle
       style="fill:#fefefe;fill-opacity:1;stroke:#fefefe;stroke-width:0.264583;stroke-linecap:square;stroke-miterlimit:4;stroke-dasharray:none"
       id="path849"
       cx="-148.81465"
       cy="-78.853951"
       r="71.569626"
       transform="rotate(-154.95497)"
       inkscape:export-xdpi="96"
       inkscape:export-ydpi="96" />
    <g
       id="g1264"
       transform="translate(-2.405814,8.5271659)"
       inkscape:export-xdpi="96"
       inkscape:export-ydpi="96">
      <g
         id="g1212"
         transform="translate(-195.51156,3.4266141)">
        <path
           style="opacity:0.984759;fill:none;fill-opacity:1;stroke:#000000;stroke-width:0.926042;stroke-linecap:round;stroke-linejoin:round;stroke-miterlimit:4;stroke-dasharray:none;paint-order:markers stroke fill"
           d="m 263.7676,118.9457 c 7.48529,-0.70093 6.27587,-0.5461 9.41796,-0.76389 1.0333,-0.0716 1.61613,-0.1459 3.10218,-0.17848 1.48606,-0.0326 2.14656,-0.19346 2.81438,0.35055 0.66782,0.54401 0.57565,1.45054 0.75026,2.208 0.42813,1.85723 0.17051,3.84662 0.71612,5.6728 0.39111,1.30904 0.90706,2.64881 1.80154,3.68151 1.1616,1.3411 2.73445,2.38143 4.39814,2.99786 2.47326,0.9164 5.24407,1.18688 7.86369,0.87961 2.35229,-0.27592 4.68361,-1.13882 6.68678,-2.40245 1.49443,-0.94271 2.83402,-2.22916 3.76608,-3.73025 0.98847,-1.59194 0.59212,-3.88042 1.77446,-5.33418 0.67479,-0.8297 1.7347,-1.36014 2.77412,-1.61183 0.98124,-0.2376 2.31433,-0.26439 3.02482,0.15505 0.71049,0.41944 0.70728,1.06996 1.01323,1.63267 0.66931,1.23099 1.09888,2.58478 1.79269,3.80213 0.5897,1.03467 1.09197,2.19193 2.00391,2.95785 1.36351,1.14519 3.1335,1.80942 4.87359,2.18719 1.91272,0.41525 3.9328,0.30098 5.87173,0.0336 1.21843,-0.16802 2.41796,-0.52967 3.5464,-1.01899 0.9833,-0.42639 1.99608,-0.89751 2.76023,-1.64901 1.00407,-0.98744 1.67765,-2.30402 2.227,-3.59015 0.54935,-1.28613 0.85199,-2.65861 1.03939,-4.03472 0.2547,-1.87032 -0.32769,-3.82448 0.10513,-5.66177 0.1778,-0.75476 0.89062,-1.37969 0.99957,-2.10057 0.10895,-0.72088 0.96981,-1.03016 -0.29422,-2.02689 -1.26403,-0.99673 -5.05554,0.43033 -7.57864,0.69327 -2.83634,0.29558 -5.69982,0.43985 -8.49716,0.99401 -1.78642,0.35389 -3.59822,0.73377 -5.25858,1.48192 -1.39484,0.6285 -2.41206,1.98781 -3.85909,2.4845 -1.7686,0.60706 -3.76445,0.91688 -5.58731,0.50017 -1.43975,-0.32913 -2.46793,-1.64183 -3.80303,-2.27326 -1.41239,-0.66798 -2.88655,-1.24343 -4.41132,-1.58419 -2.23411,-0.49929 -4.54761,-0.62966 -6.83673,-0.65124 -2.43757,-0.023 -5.26127,0.27847 -7.29187,0.55609 -2.03061,0.27761 -3.08401,0.4878 -4.87957,0.80515 -1.79556,0.31736 -3.72913,0.44522 -6.37001,0.75812 -2.64088,0.31291 -6.35734,0.52521 -8.7611,0.84066 -2.36672,0.31059 -3.65757,0.43885 -6.01973,0.71703 0.28106,0.71484 1.03876,1.1749 1.71515,1.53887 0.79189,0.42612 1.71447,0.7671 2.60981,0.68326 z"
           id="path988"
           sodipodi:nodetypes="saszaaaaaaaaazaaaaaaazaazcaaaaaaaaszzscas" />
        <path
           style="opacity:0.984759;fill:none;fill-opacity:0.325856;stroke:#000000;stroke-width:0.926042;stroke-linecap:round;stroke-miterlimit:4;stroke-dasharray:none"
           d="m 272.47221,126.18503 c 0,0 -11.07103,-8.38074 -12.45008,-8.38074 -1.37906,0 -3.64266,0.89967 -4.6365,2.31205 -1.27695,1.81472 -1.45039,4.73806 -0.78464,6.61049 0.66576,1.87244 2.76582,7.05317 3.62179,9.16983 0.85598,2.11666 1.49794,3.02847 0.35666,4.9009 -1.14129,1.87243 -3.23752,4.47472 -3.94697,7.08267 -0.72986,2.68297 -1.0645,5.69982 -0.19021,8.33926 0.87973,2.65586 2.82082,5.08716 5.16291,6.61757 3.05817,1.99832 6.977,2.96745 10.62068,2.70419 3.11656,-0.22518 6.35905,-1.47792 8.65737,-3.59485 2.23219,-2.05601 3.71427,-5.09306 4.16937,-8.09351 0.44464,-2.93148 -0.23917,-6.098 -1.5455,-8.75973 -1.00183,-2.04129 -2.13287,-3.23529 -4.58894,-5.04742"
           id="path851"
           sodipodi:nodetypes="csasssaaaaaaac" />
        <path
           style="opacity:0.984759;fill:none;fill-opacity:0.325856;stroke:#000000;stroke-width:0.926042;stroke-linecap:round;stroke-miterlimit:4;stroke-dasharray:none"
           d="m 265.2863,136.28765 c -0.86786,-1.5875 -0.22588,-1.08276 -0.86786,-1.46539 -0.64198,-0.38262 -1.58665,-0.69213 -2.15205,-1.31404 -0.94899,-1.04384 -1.61035,-2.41545 -1.8525,-3.80525 -0.27125,-1.55678 0.24965,-4.23273 0.5112,-4.71305 0.26155,-0.48031 -1.10563,-3.33781 -0.32099,-2.36089 0.78464,0.97692 1.80704,1.73404 2.34203,1.73404 0.53498,0 0.83458,0.57902 1.20073,0.92807 0.75615,0.72085 2.04607,1.34071 2.03292,2.38532 -0.008,0.62322 -1.19693,0.77096 -1.24828,1.39211 -0.0816,0.98686 1.59305,2.50743 1.59305,2.50743"
           id="path853"
           sodipodi:nodetypes="csaasssaaac" />
        <path
           style="opacity:0.984759;fill:none;fill-opacity:0.325856;stroke:#000000;stroke-width:0.926042;stroke-linecap:round;stroke-miterlimit:4;stroke-dasharray:none"
           d="m 270.08025,127.76119 c 0.0238,1.63889 -0.0257,3.30254 0.82943,4.60822 1.38237,2.11082 3.67806,3.55463 6.293,4.20675"
           id="path855"
           sodipodi:nodetypes="cac" />
        <path
           style="opacity:0.984759;fill:none;fill-opacity:0.325856;stroke:#000000;stroke-width:0.926042;stroke-linecap:round;stroke-miterlimit:4;stroke-dasharray:none"
           d="m 285.24898,145.31183 c 0.10088,3.02116 -0.0588,2.57791 0.29423,3.38383 0.35307,0.80592 1.6753,2.8139 1.6753,2.8139"
           id="path859" />
        <circle
           style="opacity:0.984759;fill:none;fill-opacity:0.325856;stroke:#000000;stroke-width:1.16154;stroke-linecap:round;stroke-miterlimit:4;stroke-dasharray:none"
           id="path861"
           cx="268.87076"
           cy="151.37738"
           r="10.912453" />
        <circle
           style="opacity:0.984759;fill:none;fill-opacity:0.325856;stroke:#000000;stroke-width:0.529167;stroke-linecap:round;stroke-miterlimit:4;stroke-dasharray:none"
           id="path861-3"
           cx="268.87076"
           cy="151.37738"
           r="8.8518944" />
        <path
           style="opacity:0.984759;fill:none;fill-opacity:0.325856;stroke:#000000;stroke-width:0.926042;stroke-linecap:round;stroke-miterlimit:4;stroke-dasharray:none"
           d="m 273.89875,151.2265 c 0.90895,2.78992 1.66851,2.98478 2.54252,4.47541 m 4.07517,5.10527 c 3.14226,4.45542 3.37481,4.51769 15.06004,8.63754 5.32741,1.87828 6.44248,2.11979 9.78294,2.58875 3.37646,0.474 6.2542,0.69156 10.2266,0.20721 3.44654,-0.42023 4.18121,-0.99074 5.76679,-2.32565 1.45733,-1.22693 2.2842,-3.09698 3.0095,-4.85854 0.68379,-1.66075 0.85576,-3.48968 1.21042,-5.25033 0.3288,-1.63229 1.06806,-5.29473 1.06806,-5.29473"
           id="path878"
           sodipodi:nodetypes="cccsasaasc" />
        <path
           style="opacity:0.984759;fill:none;fill-opacity:0.325856;stroke:#000000;stroke-width:0.926042;stroke-linecap:round;stroke-miterlimit:4;stroke-dasharray:none"
           d="m 327.06481,151.66132 c 2.14629,-15.3604 2.32598,-20.56561 2.32598,-20.56561"
           id="path898"
           sodipodi:nodetypes="cc" />
        <path
           style="opacity:0.984759;fill:none;fill-opacity:0.325856;stroke:#000000;stroke-width:0.926042;stroke-linecap:round;stroke-linejoin:round;stroke-miterlimit:4;stroke-dasharray:none;paint-order:markers stroke fill"
           d="m 307.09343,172.31813 c 0.26155,4.11934 0.26155,4.11934 0.26155,4.11934"
           id="path900" />
        <path
           style="opacity:0.984759;fill:none;fill-opacity:0.325856;stroke:#000000;stroke-width:0.926042;stroke-linecap:round;stroke-linejoin:round;stroke-miterlimit:4;stroke-dasharray:none;paint-order:markers stroke fill"
           d="m 270.41704,165.53009 -0.0126,3.93461"
           id="path902"
           sodipodi:nodetypes="cc" />
        <path
           style="opacity:0.984759;fill:none;fill-opacity:0.325856;stroke:#000000;stroke-width:0.926042;stroke-linecap:round;stroke-linejoin:round;stroke-miterlimit:4;stroke-dasharray:none;paint-order:markers stroke fill"
           d="m 293.06631,148.80447 c 0.0594,-2.07695 -0.10882,-2.53602 0.53973,-3.53687 1.16499,-1.79782 4.7303,-3.01999 5.40281,-3.48052 0.67251,-0.46052 1.29458,-2.42927 1.29458,-2.42927"
           id="path906"
           sodipodi:nodetypes="casc" />
        <path
           style="opacity:0.984759;fill:none;fill-opacity:0.325856;stroke:#000000;stroke-width:0.926042;stroke-linecap:round;stroke-linejoin:round;stroke-miterlimit:4;stroke-dasharray:none;paint-order:markers stroke fill"
           d="m 309.99864,160.89053 c 1.16849,-1.56003 3.90825,-1.27473 3.90825,-1.27473"
           id="path908"
           sodipodi:nodetypes="cc" />
        <path
           style="opacity:0.984759;fill:none;fill-opacity:0.325856;stroke:#000000;stroke-width:0.926042;stroke-linecap:round;stroke-linejoin:round;stroke-miterlimit:4;stroke-dasharray:none;paint-order:markers stroke fill"
           d="m 321.35458,139.99914 c 1.59305,3.17499 1.99845,5.1854 2.06978,5.96693"
           id="path910" />
        <path
           style="opacity:0.984759;fill:none;fill-opacity:0.325856;stroke:#000000;stroke-width:0.926042;stroke-linecap:round;stroke-linejoin:round;stroke-miterlimit:4;stroke-dasharray:none;paint-order:markers stroke fill"
           d="m 296.19639,146.38873 c -0.18159,4.05707 4.1096,3.69703 6.81525,3.84011 5.44025,0.28769 9.81759,0.8654 14.63811,0.10901 1.18089,-0.18529 3.04281,-1.41273 3.40541,-1.12372 0.36259,0.28901 0.0573,1.96627 -0.11889,2.48911 m -0.65479,2.37471 c -1.32537,1.59373 -4.48288,2.8563 -6.09985,3.34526 -2.20924,0.64585 -4.61476,0.61652 -6.8976,0.32242 -1.16251,-0.14977 -2.31308,-0.51455 -3.35621,-1.04909 -1.22021,-0.62528 -2.38108,-1.44269 -3.28905,-2.47005 -0.7869,-0.89036 -1.69926,-2.15105 -1.7741,-3.09193"
           id="path912"
           sodipodi:nodetypes="csascccaaac" />
        <path
           style="opacity:0.984759;fill:none;fill-opacity:0.325856;stroke:#000000;stroke-width:0.926042;stroke-linecap:round;stroke-linejoin:round;stroke-miterlimit:4;stroke-dasharray:none;paint-order:markers stroke fill"
           d="m 303.13527,140.82046 c -0.14028,-1.58741 -0.0378,-2.92882 1.25943,-4.21662"
           id="path914"
           sodipodi:nodetypes="cc" />
        <path
           style="opacity:0.984759;fill:none;fill-opacity:0.325856;stroke:#000000;stroke-width:0.926042;stroke-linecap:round;stroke-linejoin:round;stroke-miterlimit:4;stroke-dasharray:none;paint-order:markers stroke fill"
           d="m 314.24787,141.65002 c 2.92456,-1.9457 2.34202,-1.13974 2.92456,-1.90499 0.58253,-0.76526 0.72751,-1.66424 -0.34711,-3.94923 -1.07462,-2.285 -2.83297,-4.14379 -3.30851,-7.13036 -0.47553,-2.98656 0.15455,-6.16277 0.15455,-6.16277"
           id="path916" />
        <path
           style="opacity:0.984759;fill:#000000;fill-opacity:1;stroke:none;stroke-width:0.926042;stroke-linecap:round;stroke-linejoin:round;stroke-miterlimit:4;stroke-dasharray:none;paint-order:markers stroke fill"
           d="m 307.8992,142.17935 c 0.61689,-0.0849 1.22324,-0.31805 1.84534,-0.2907 0.43585,0.0192 0.85034,0.43554 1.27002,0.31635 0.34649,-0.0984 0.67137,-0.42289 0.75475,-0.7733 0.0993,-0.41745 -0.14207,-0.87575 -0.38786,-1.22748 -0.35173,-0.50333 -0.88279,-0.91197 -1.45867,-1.12509 -0.7981,-0.29536 -1.72627,-0.34786 -2.54955,-0.13245 -0.39983,0.10462 -0.74361,0.38298 -1.04803,0.66251 -0.33517,0.30777 -0.70171,0.60348 -0.82494,1.08767 -0.12322,0.4842 -0.23233,1.45801 0.54737,1.70057 0,0 1.23592,-0.13336 1.85157,-0.21808 z"
           id="path918"
           sodipodi:nodetypes="aaaaaaaacsa" />
        <path
           style="opacity:0.984759;fill:#000000;fill-opacity:1;stroke:none;stroke-width:0.926042;stroke-linecap:round;stroke-linejoin:round;stroke-miterlimit:4;stroke-dasharray:none;paint-order:markers stroke fill"
           d="m 320.28148,154.07795 c 0,0 -1.68812,0.30699 -2.3798,0.0183 -0.69168,-0.28872 -0.94404,-0.50393 -0.89675,-1.31245 0.0473,-0.80852 0.3583,-1.17235 0.6139,-1.17235 0.2556,0 3.31744,0.0918 3.31744,0.0918 l 6.12854,-0.0419 c 0,0 11.92082,-0.001 12.88379,-0.5793 0.96296,-0.57801 1.26032,-3.73221 1.26032,-5.51509 0,-1.78288 -0.19021,-1.70961 0.71331,-2.09224 0.90353,-0.38262 5.10368,-0.8548 6.17364,-0.8548 1.06996,0 4.51763,0.3582 4.90994,1.09903 0.39231,0.74084 0.78725,5.30848 0.78725,5.87021 0,0.56173 -1.85553,5.02002 -3.16707,5.86719 -1.31153,0.84718 -6.10258,1.10769 -8.12362,0.88788 -2.02104,-0.2198 -9.02814,-0.91179 -10.7163,-1.15602 -1.68816,-0.24423 -5.14528,-0.67675 -5.14528,-0.67675 l -6.35931,-0.43348"
           id="path924" />
        <path
           id="path928"
           style="opacity:0.984759;fill:none;fill-opacity:1;stroke:#000000;stroke-width:1.27536;stroke-linecap:round;stroke-linejoin:round;stroke-miterlimit:4;stroke-dasharray:none;paint-order:markers stroke fill"
           d="m 329.59292,131.36774 c -0.29376,4.88931 2.17499,4.97919 4.58975,7.4353 1.64736,1.67556 2.55712,4.42936 2.21971,6.69063 -0.72541,4.86155 -4.4781,10.83538 -10.00211,10.83538"
           sodipodi:nodetypes="cssc" />
        <path
           id="path928-6"
           style="opacity:0.984759;fill:none;fill-opacity:1;stroke:#000000;stroke-width:0.899762;stroke-linecap:round;stroke-linejoin:round;stroke-miterlimit:4;stroke-dasharray:none;paint-order:markers stroke fill"
           d="m 329.37996,138.22053 c 2.79011,0.69204 4.998,2.91706 4.998,7.1389 0,4.22185 -3.15928,7.64432 -7.05645,7.64432"
           sodipodi:nodetypes="csc" />
        <path
           id="path928-6-7"
           style="opacity:0.984759;fill:none;fill-opacity:1;stroke:#000000;stroke-width:0.681914;stroke-linecap:round;stroke-linejoin:round;stroke-miterlimit:4;stroke-dasharray:none;paint-order:markers stroke fill"
           d="m 328.88774,140.34529 c 2.11457,0.52448 3.78789,2.21078 3.78789,5.41044 0,3.19966 -2.39436,5.79349 -5.34795,5.79349"
           sodipodi:nodetypes="csc" />
        <path
           style="opacity:0.984759;fill:#000000;fill-opacity:1;stroke:none;stroke-width:0.926042;stroke-linecap:round;stroke-linejoin:round;stroke-miterlimit:4;stroke-dasharray:none;paint-order:markers stroke fill"
           d="m 287.41911,122.74087 c -0.47778,-0.27856 -0.99251,-0.48419 -1.20074,-1.19673 -0.3091,-1.20487 -0.2021,-1.83987 0.53498,-2.33647 0.73709,-0.4966 3.8231,-2.18769 5.68958,-2.23653 1.86649,-0.0489 5.92045,1.22929 6.8002,1.22929 0.87974,0 2.56791,-0.008 2.72246,0.44775 0.15454,0.4559 0.65386,0.99321 0.0476,1.35141 -0.60631,0.35821 -6.25524,-0.64314 -7.19443,-0.8141 -0.93918,-0.17096 -3.31687,0.84666 -4.56516,1.60378 -1.24829,0.75711 -2.83444,1.9516 -2.83444,1.9516 z"
           id="path966"
           sodipodi:nodetypes="ccscscssscc" />
        <path
           style="opacity:0.984759;fill:#000000;fill-opacity:1;stroke:none;stroke-width:0.926042;stroke-linecap:round;stroke-linejoin:round;stroke-miterlimit:4;stroke-dasharray:none;paint-order:markers stroke fill"
           d="m 291.87475,120.02485 c 0.17833,3.24607 -0.0476,2.83495 0.17833,3.28677 0.22588,0.45183 0.31478,0.92512 1.19453,0.92512 0.87975,0 2.84328,-0.42791 3.4912,-0.92858 0.64792,-0.50068 1.28395,-0.97285 1.06401,-1.27407 -0.21993,-0.30122 -0.47553,0.0488 -1.20667,0.18317 -0.73114,0.13433 -1.09374,0.30529 -0.82031,-0.66756 0.27344,-0.97285 2.39553,-2.0149 2.39553,-2.0149 l -4.95551,-1.05468 z"
           id="path968" />
        <path
           style="opacity:0.984759;fill:none;fill-opacity:1;stroke:#000000;stroke-width:0.926042;stroke-linecap:round;stroke-linejoin:round;stroke-miterlimit:4;stroke-dasharray:none;paint-order:markers stroke fill"
           d="m 299.25416,124.34894 c 2.27772,-0.79252 1.69671,-0.23695 2.27772,-0.79252 0.47388,-0.45313 0.88401,-1.18991 0.72888,-1.82695 -0.25654,-1.05349 -2.45945,-2.12882 -2.45945,-2.12882"
           id="path970"
           sodipodi:nodetypes="caac" />
        <path
           style="opacity:0.984759;fill:#000000;fill-opacity:1;stroke:none;stroke-width:0.926042;stroke-linecap:round;stroke-linejoin:round;stroke-miterlimit:4;stroke-dasharray:none;paint-order:markers stroke fill"
           d="m 318.3239,117.83148 c -0.76086,-0.70826 -0.76086,-0.70826 -0.76086,-0.70826 0,0 0.11323,-0.82675 2.50875,-1.40476 2.39553,-0.57801 3.59445,-0.71905 4.14727,-0.60508 0.55281,0.11397 3.63094,1.79316 3.86871,2.00483 0.23777,0.21167 0.27804,1.2854 0.0878,1.36681 -0.19021,0.0814 -2.12041,-0.67888 -2.93477,-0.93939 -0.81436,-0.26052 -2.22314,-0.22388 -2.92456,-0.15061 -0.70141,0.0733 -3.99236,0.43646 -3.99236,0.43646 z"
           id="path972" />
        <path
           style="opacity:0.984759;fill:#000000;fill-opacity:1;stroke:none;stroke-width:0.926042;stroke-linecap:round;stroke-linejoin:round;stroke-miterlimit:4;stroke-dasharray:none;paint-order:markers stroke fill"
           d="m 318.47589,117.40272 c -0.68643,0.76666 -0.59643,2.11081 -0.24372,3.07754 0.22932,0.62853 0.79897,1.15566 1.40976,1.42875 0.99,0.44264 2.19353,0.40575 3.24948,0.15875 0.68183,-0.15949 1.95741,-0.39191 1.83504,-1.02256 -1.28446,-0.10149 -2.03956,-0.0926 -2.25708,-0.36142 -0.3293,-0.40698 0.29123,-0.36257 0.19021,-1.559 -0.10105,-1.19642 -0.29721,-1.92259 -0.29721,-1.92259 l -1.55165,-0.24692 c 0,0 -1.80623,-0.14293 -2.33483,0.44745 z"
           id="path974"
           sodipodi:nodetypes="aaaacsscca" />
        <path
           style="opacity:0.984759;fill:none;fill-opacity:1;stroke:#000000;stroke-width:0.926042;stroke-linecap:round;stroke-linejoin:round;stroke-miterlimit:4;stroke-dasharray:none;paint-order:markers stroke fill"
           d="m 329.96725,127.79421 c 0.008,-2.80482 0.19117,-3.50253 1.25157,-5.01812 1.0604,-1.51559 1.549,-2.55088 1.59086,-4.77554 0.0419,-2.22466 -0.0254,-2.81758 -0.0254,-2.81758"
           id="path978" />
        <path
           style="opacity:0.984759;fill:none;fill-opacity:1;stroke:#000000;stroke-width:0.926042;stroke-linecap:round;stroke-linejoin:round;stroke-miterlimit:4;stroke-dasharray:none;paint-order:markers stroke fill"
           d="m 329.35531,128.28404 0.32499,-13.58862"
           id="path980" />
        <path
           style="opacity:0.984759;fill:none;fill-opacity:1;stroke:#000000;stroke-width:0.926042;stroke-linecap:round;stroke-linejoin:round;stroke-miterlimit:4;stroke-dasharray:none;paint-order:markers stroke fill"
           d="m 272.47221,126.18503 c 0,0 0.0137,-4.92723 0.1887,-6.19039 0.17499,-1.26317 0.18469,-1.58651 0.18469,-1.58651"
           id="path982" />
        <path
           style="opacity:0.984759;fill:none;fill-opacity:1;stroke:#000000;stroke-width:0.926042;stroke-linecap:round;stroke-linejoin:round;stroke-miterlimit:4;stroke-dasharray:none;paint-order:markers stroke fill"
           d="m 282.30004,119.34286 c 0.71311,-1.39155 1.78855,-2.73945 3.18411,-3.44468 2.14655,-1.08473 4.76694,-0.88033 7.17066,-0.80016 2.50147,0.0834 5.04916,0.44271 7.39019,1.32806 1.57086,0.59408 3.30463,1.26628 4.30759,2.61335 0.3861,0.51857 0.50057,1.23067 0.48837,1.87708 -0.0354,1.87741 -0.62655,3.80286 -1.62312,5.39432 -0.9381,1.49808 -2.33467,2.77266 -3.90099,3.59175 -1.75696,0.91879 -3.83165,1.10665 -5.80536,1.29522 -1.31717,0.12584 -2.67687,0.17504 -3.96782,-0.11513 -1.67158,-0.37573 -3.39594,-0.96125 -4.70731,-2.06382 -1.04697,-0.88027 -1.74245,-2.15683 -2.26855,-3.41946 -0.49201,-1.18081 -0.77505,-2.47898 -0.77685,-3.7582 -10e-4,-0.84989 0.12148,-1.74197 0.50908,-2.49833 z"
           id="path984"
           sodipodi:nodetypes="aaaaaaaaaaaaaa" />
        <path
           style="opacity:0.984759;fill:none;fill-opacity:1;stroke:#000000;stroke-width:0.926042;stroke-linecap:round;stroke-linejoin:round;stroke-miterlimit:4;stroke-dasharray:none;paint-order:markers stroke fill"
           d="m 315.63036,119.86127 c 0.20504,-1.09817 1.03194,-2.07723 1.93268,-2.73805 1.73719,-1.27448 4.04157,-1.55666 6.15605,-1.97029 1.95584,-0.38259 3.96986,-0.53641 5.96121,-0.45751 1.04652,0.0415 2.05849,0.42517 3.10398,0.48755 0.62652,0.0374 1.35542,-0.41097 1.88164,-0.0689 0.69277,0.45033 0.78735,1.4856 0.92263,2.30072 0.27067,1.63089 0.16994,3.35647 -0.26003,4.95277 -0.31118,1.15528 -0.95511,2.21132 -1.63761,3.19401 -0.45137,0.64989 -0.91705,1.35486 -1.60116,1.75246 -0.62715,0.3645 -1.46894,0.16546 -2.1225,0.48015 -0.23541,0.11335 -0.3805,0.36857 -0.61194,0.48983 -0.76605,0.40135 -1.63183,0.60692 -2.48598,0.74234 -1.24854,0.19795 -2.55713,0.36577 -3.79128,0.0921 -1.3652,-0.30273 -2.66448,-0.99314 -3.75767,-1.86513 -1.09213,-0.87114 -2.02454,-1.99733 -2.65123,-3.24589 -0.63915,-1.27336 -1.30028,-2.74559 -1.03879,-4.14616 z"
           id="path986"
           sodipodi:nodetypes="aaaaaaaaaaaaaaaaa" />
        <path
           style="opacity:0.984759;fill:#000000;fill-opacity:1;stroke:#000000;stroke-width:0.467722;stroke-linecap:round;stroke-linejoin:round;stroke-miterlimit:4;stroke-dasharray:none;paint-order:markers stroke fill"
           d="m 290.99593,133.30241 c -2.3898,-0.21634 -4.5767,-0.93182 -6.23634,-2.04031 -2.58544,-1.72685 -3.74662,-3.97587 -4.05125,-7.84665 -0.18851,-2.3952 -0.5904,-4.63338 -0.91143,-5.07584 -0.13332,-0.18375 -0.50949,-0.47374 -0.83593,-0.64442 -0.56546,-0.29565 -0.68201,-0.30639 -2.46442,-0.22711 -2.65406,0.11806 -7.15448,0.43709 -10.36247,0.73458 -1.97219,0.1829 -2.90652,0.21836 -3.31783,0.12595 -0.57713,-0.12968 -1.60071,-0.604 -2.08125,-0.96445 -0.24495,-0.18374 -0.22956,-0.19957 0.26727,-0.27494 1.47647,-0.22398 6.50467,-0.77937 9.28026,-1.02506 5.16716,-0.4574 8.99418,-0.9066 11.8935,-1.39602 5.57882,-0.94175 9.08883,-1.22438 12.59812,-1.01443 1.26618,0.0757 2.87344,0.23544 3.57168,0.35486 2.56926,0.43942 5.14433,1.45708 6.88252,2.71997 1.68293,1.22273 2.117,1.38189 3.95698,1.45088 2.67773,0.1004 4.53657,-0.41916 6.32472,-1.76781 1.50952,-1.13852 1.84368,-1.32792 3.14827,-1.78449 2.32665,-0.81427 5.13171,-1.31295 9.95579,-1.76995 1.61698,-0.15318 3.81193,-0.45409 4.87767,-0.6687 3.74988,-0.75512 4.42889,-0.77325 5.0077,-0.13367 0.28039,0.30983 0.23957,0.45351 -0.64668,2.27576 l -0.55243,1.1359 -0.014,2.87315 c -0.0184,3.76009 -0.27453,5.08585 -1.45897,7.55036 -1.451,3.01917 -3.48064,4.29864 -8.08189,5.09476 -1.60612,0.2779 -4.52,0.17579 -5.94674,-0.20837 -1.48408,-0.39961 -3.34587,-1.34336 -4.08218,-2.06929 -0.70097,-0.69109 -1.79147,-2.55393 -2.78346,-4.7548 -1.36477,-3.02796 -1.49509,-3.24467 -2.14962,-3.57473 -0.48898,-0.24658 -0.81358,-0.30017 -1.80407,-0.29786 -1.39087,0.003 -2.56928,0.348 -3.59006,1.05031 -1.1651,0.80162 -1.55812,1.54824 -2.04148,3.87822 -0.37706,1.81757 -0.61396,2.3418 -1.59671,3.53324 -2.71691,3.29384 -7.83971,5.20595 -12.75524,4.76096 z m 4.5153,-1.79999 c 2.63766,-0.37086 4.293,-1.04218 5.95968,-2.41694 1.16278,-0.95911 1.96375,-1.98814 2.69535,-3.46278 0.76948,-1.55097 1.13478,-3.00007 1.14538,-4.54358 0.0107,-1.55544 -0.21359,-2.12092 -1.20517,-3.03867 -0.89265,-0.82619 -1.85372,-1.3576 -3.68929,-2.03995 -2.7899,-1.03712 -5.43103,-1.42671 -9.75534,-1.43899 -2.47935,-0.007 -2.92955,0.0258 -3.86389,0.28158 -2.18589,0.59847 -3.73041,1.90093 -4.8821,4.11696 -0.81835,1.57464 -0.85029,3.91226 -0.0842,6.16458 1.26128,3.70833 3.55685,5.63091 7.7779,6.51412 1.11668,0.23366 3.69366,0.17413 5.9017,-0.13633 z m 31.75733,-2.02605 c 1.28542,-0.24037 2.28261,-0.6054 2.68403,-0.98252 0.20147,-0.18927 0.59813,-0.32233 1.21743,-0.40838 1.196,-0.16619 1.77173,-0.57034 2.75453,-1.93359 1.90706,-2.64531 2.63442,-5.32306 2.25101,-8.2871 -0.23616,-1.82572 -0.46885,-2.50368 -1.02771,-2.99437 l -0.48287,-0.42397 -1.15805,0.0906 c -0.86653,0.0678 -1.44312,0.0324 -2.29044,-0.14046 -1.53036,-0.31225 -5.12266,-0.21973 -7.41322,0.19093 -4.31491,0.7736 -5.86009,1.36745 -7.29532,2.80377 -1.3668,1.36784 -1.72363,2.64391 -1.25696,4.49499 0.28987,1.14981 1.41303,3.336 2.20809,4.29801 1.47841,1.78883 3.96744,3.24744 6.07692,3.56115 0.6146,0.0914 2.55162,-0.0482 3.73256,-0.26905 z"
           id="path1000" />
        <path
           style="opacity:0.984759;fill:#000000;fill-opacity:1;stroke:#000000;stroke-width:0.926042;stroke-linecap:round;stroke-linejoin:round;stroke-miterlimit:4;stroke-dasharray:none;paint-order:markers stroke fill"
           d="m 309.33366,114.35726 c 0.3534,1.49946 0.0844,1.09074 0.3534,1.49946 0.269,0.40871 1.09283,-0.0345 1.09283,-0.0345"
           id="path1002" />
        <path
           style="opacity:0.984759;fill:#000000;fill-opacity:1;stroke:none;stroke-width:0.926042;stroke-linecap:round;stroke-linejoin:round;stroke-miterlimit:4;stroke-dasharray:none;paint-order:markers stroke fill"
           d="m 280.13447,112.84012 c 2.40959,-1.36394 1.54642,-1.03719 2.40959,-1.36394 1.19719,-0.4532 2.43717,-0.81861 3.75698,-0.79559 1.3198,0.023 5.69578,0.19572 8.05798,0.60444 2.3622,0.40871 9.8618,2.91556 10.29053,3.03069 0.42873,0.11513 1.08443,-0.0345 1.08443,-0.0345 0,0 0.60395,0.58823 0.10087,-0.59292 -0.50308,-1.18115 -3.75373,-2.9379 -5.87319,-3.99212 -2.90397,-1.44444 -6.02285,-2.55558 -9.21718,-3.1175 -2.04752,-0.36018 -4.25887,-0.78254 -6.23537,-0.1379 -0.57675,0.18811 -0.62207,0.0173 -1.4459,1.10526 -0.82383,1.08799 -1.51547,1.75194 -2.05187,2.76729 -0.41645,0.78831 -0.87686,2.52683 -0.87686,2.52683 z"
           id="path1004"
           sodipodi:nodetypes="casssczaaasacc" />
        <path
           style="opacity:0.984759;fill:#000000;fill-opacity:1;stroke:none;stroke-width:0.926042;stroke-linecap:round;stroke-linejoin:round;stroke-miterlimit:4;stroke-dasharray:none;paint-order:markers stroke fill"
           d="m 316.07996,113.04989 c 6.16046,-5.87722 4.46221,-4.43058 6.12683,-5.83116 1.66463,-1.40059 2.87516,-1.78627 4.3715,-1.88989 1.49633,-0.10362 2.17725,-0.27056 3.23646,0.2245 1.05921,0.49507 1.95869,1.17047 1.76534,2.41964 -0.19334,1.24918 -0.28582,1.6694 -0.86586,2.07812 -0.58004,0.40872 -0.55219,0.01 -1.75124,-0.24908 -1.19905,-0.25904 -2.11996,-0.2507 -3.07828,0.23285 -0.95834,0.48355 -5.16977,2.58035 -6.11129,3.00633 -0.94151,0.42599 -1.83914,0.94098 -2.5789,0.98703 -0.73977,0.046 -1.11456,-0.97834 -1.11456,-0.97834 z"
           id="path1006" />
        <path
           style="opacity:0.984759;fill:none;fill-opacity:1;stroke:#000000;stroke-width:0.926042;stroke-linecap:round;stroke-linejoin:round;stroke-miterlimit:4;stroke-dasharray:none;paint-order:markers stroke fill"
           d="m 330.09561,109.82562 -0.19335,2.65953"
           id="path1008" />
        <path
           style="opacity:0.984759;fill:#000000;fill-opacity:1;stroke:none;stroke-width:0.926042;stroke-linecap:round;stroke-linejoin:round;stroke-miterlimit:4;stroke-dasharray:none;paint-order:markers stroke fill"
           d="m 330.50773,105.36644 c 1.5208,-9.588706 0.60011,-6.480899 1.5208,-9.580556 0.7644,-2.573469 2.70635,-4.732055 3.28426,-7.353707 0.69689,-3.161359 0.8439,-6.552143 0.13503,-9.710835 -0.4604,-2.051527 -1.31133,-4.154724 -2.77441,-5.66474 -1.51694,-1.565612 -3.67856,-2.47916 -5.77957,-3.060541 -0.7928,-0.21938 -1.16849,0.537038 -2.46433,-0.130524 -1.29584,-0.667563 -3.66231,-4.067609 -6.02025,-5.352132 -3.19774,-1.742018 -6.92849,-2.35887 -10.5259,-2.9235 -3.44447,-0.540625 -6.97497,-0.690278 -10.45135,-0.423032 -8.38036,0.644238 -16.92106,1.781833 -24.74271,4.858705 -3.78298,1.488142 -7.33911,3.713712 -10.36063,6.433248 -2.4188,2.177048 -4.38456,4.878128 -5.99167,7.707847 -1.11237,1.958608 -2.10096,4.070525 -2.45773,6.294538 -0.56922,3.548368 0.32658,7.180858 0.58327,10.765413 0.1914,2.672774 0.12276,5.393416 0.71331,8.007146 0.90038,3.98504 0.75929,9.39488 4.26679,11.4898 4.14763,2.47725 10.4699,0.87229 14.35473,-1.9996 2.04754,-1.51366 2.28672,-4.55753 3.2262,-6.92417 1.53206,-3.85939 4.16535,-9.774106 3.9157,-11.825646 -0.24966,-2.051531 -3.83922,-5.294187 -3.14242,-8.107619 0.35737,-1.442939 1.98209,-2.382726 3.36604,-2.925379 2.21842,-0.869854 4.76791,-0.394314 7.14496,-0.227949 2.48514,0.17393 4.98721,0.5296 7.36383,1.276493 3.72889,1.171868 8.96211,4.025889 10.62241,4.966441 1.6603,0.940551 3.46161,1.689523 4.76935,1.567407 1.30772,-0.122113 3.37225,-0.343924 4.50144,-1.114234 1.1292,-0.770311 4.29613,-2.93692 6.14054,-4.752885 0.94045,-0.925948 1.15393,-3.163429 2.47183,-3.092979 1.66775,0.08915 2.06712,2.67674 2.69291,4.2252 1.6446,4.069411 2.04797,8.552121 2.62511,12.90318 0.24813,1.87065 0.35665,5.64985 0.35665,5.64985 l 1.12513,0.72962 z"
           id="path1010"
           sodipodi:nodetypes="caaaaasaaaaaaaaasaasaaaasssaaaaccc" />
      </g>
      <path
         style="opacity:0.984759;fill:#000000;fill-opacity:1;stroke:#000000;stroke-width:0.220971;stroke-linecap:round;stroke-linejoin:round;stroke-miterlimit:4;stroke-dasharray:none;paint-order:markers stroke fill"
         d="m 287.21806,484.89686 c -9.68915,-7.23517 -20.55927,-15.03103 -27.1888,-19.49933 l -1.68198,-1.13366 2.18705,-0.20357 c 15.26549,-1.42093 20.71712,-1.87745 27.11093,-2.27025 l 2.76365,-0.16978 -0.0336,0.25254 c -0.0185,0.13889 -0.0625,0.50823 -0.0979,0.82074 -0.0354,0.31252 -0.17663,1.43474 -0.31392,2.49382 -0.34811,2.68536 -0.48123,4.6563 -0.62898,9.31234 -0.0579,1.82562 -0.1813,8.09039 -0.21016,10.67222 l -0.0127,1.13891 z"
         id="path1222"
         transform="scale(0.26458333)" />
    </g>
    <path
       style="fill:#000000;fill-opacity:1;stroke:#000000;stroke-width:0.926042;stroke-linecap:round;stroke-linejoin:round;stroke-miterlimit:4;stroke-dasharray:none;paint-order:markers stroke fill"
       d="m 65.15088,157.0753 c 5.802503,6.25586 6.745539,5.43181 6.786599,7.18544 0.04106,1.75363 0.502971,7.56459 0.502971,7.56459 l 0.40771,-0.24753 0.50916,-16.43649 c 0,0 -3.483112,-0.64892 -5.456983,0.35022 -1.973871,0.99914 -2.74946,1.58377 -2.74946,1.58377 z"
       id="path1266"
       sodipodi:nodetypes="sscccscs"
       inkscape:export-xdpi="96"
       inkscape:export-ydpi="96" />
    <text
       xml:space="preserve"
       style="font-size:16.9333px;line-height:1.25;font-family:sans-serif;fill:#fefefe;stroke:#fefefe;stroke-width:0.264583"
       id="text1316"
       transform="scale(-1)"
       x="-202.88226"
       y="-260.27811"><textPath
         xlink:href="#path849"
         id="textPath1368"><tspan
           id="tspan1314"
           style="font-size:16.9333px;fill:#fefefe;stroke:#fefefe;stroke-width:0.264583">Kristian Hoffmann</tspan></textPath></text>
    <ellipse
       style="fill:none;fill-opacity:1;stroke:none;stroke-width:0.988157;stroke-linecap:round;stroke-linejoin:round;stroke-miterlimit:4;stroke-dasharray:none;paint-order:markers stroke fill"
       id="path1318"
       cx="-161.92863"
       cy="-73.226303"
       rx="106.271"
       ry="100.26926"
       transform="rotate(-146.85331)"
       inkscape:export-xdpi="96"
       inkscape:export-ydpi="96" />
    <path
       id="path1398"
       style="fill:none;fill-opacity:1;stroke:none;stroke-width:0.3475;stroke-linecap:round;stroke-linejoin:round;stroke-miterlimit:4;stroke-dasharray:none;paint-order:markers stroke fill"
       d="m 36.240747,200.14163 c 11.756296,8.89112 32.859309,25.98196 53.187583,26.9003 17.08718,0.77192 21.00946,1.8551 46.54701,-7.16987 32.05245,-21.0363 58.4432,-40.88512 55.54241,-60.43567"
       sodipodi:nodetypes="cscc"
       inkscape:export-xdpi="96"
       inkscape:export-ydpi="96" />
    <text
       xml:space="preserve"
       style="font-size:18.5208px;line-height:1.25;font-family:sans-serif;fill:#fefefe;stroke-width:0.264583"
       id="text1403"
       inkscape:export-xdpi="96"
       inkscape:export-ydpi="96"
       transform="rotate(-27.646557,97.028755,139.16513)"><textPath
         xlink:href="#path1398"
         id="textPath1405">Supply<tspan
   id="tspan1401"
   style="fill:#fefefe;stroke-width:0.264583" /></textPath></text>
    <text
       xml:space="preserve"
       style="font-size:18.5208px;line-height:1.25;font-family:sans-serif;fill:#fefefe;stroke-width:0.264583"
       id="text939"
       transform="matrix(1.0333072,-1.6861172e-4,1.7422771e-4,0.99999999,-2.8625847,-8.4495919)"
       inkscape:export-xdpi="96"
       inkscape:export-ydpi="96"><textPath
         xlink:href="#path849"
         id="textPath945"><tspan
           id="tspan937"
           style="fill:#fefefe;stroke-width:0.264583">Kristian Hoffmann</tspan></textPath></text>
  </g>
</svg>
